<svg width="40px" height="16px" viewBox="0 0 40 16" version="1.1" xmlns="http://www.w3.org/2000/svg" xmlns:xlink="http://www.w3.org/1999/xlink">
    <g id="Page-1" stroke="none" stroke-width="1" fill="none" fill-rule="evenodd">
        <g id="图片状态" transform="translate(-168.000000, -356.000000)" fill="#B0B9C0">
            <g id="商品图" transform="translate(168.000000, 344.000000)">
                <g id="Group-2">
                    <g id="Page-1" transform="translate(0.000000, 12.000000)">
                        <path d="M0,8.34687711 L0.883855422,9.66109398 L1.34053012,9.26976867 L10.1879036,8.84172048 L10.1797108,8.6069253 L11.4888675,9.41603373 L11.3099277,7.10837108 L6.56660241,4.79217831 L7.83638554,3.69169639 L5.52274699,2.70041928 L0,8.34687711 Z M5.40549398,5.78697349 L8.47142169,7.4289012 L2.6026506,8.12938313 L5.40549398,5.78697349 Z" id="Fill-1"></path>
                        <polygon id="Fill-2" points="7.83639518 12.8803904 8.27745542 13.4846313 3.34319036 14.0764867 6.37841928 11.839041 10.7195277 11.7779807 10.3502265 10.0455952 1.55437108 11.0954265 1.65302169 11.9054988 3.57456386 11.8784627 1.34053976 13.6661735 1.59104578 15.0902217 9.25364819 14.821788 9.44993735 15.0907518 10.749841 15.0915711 9.94058795 12.6966313"></polygon>
                        <polygon id="Fill-3" points="15.5407422 12.6365108 13.9986217 12.8278361 13.7298024 9.72600482 22.5548627 9.03708916 23.2497542 12.5033542 21.4338506 12.0911133 21.1312 10.422053 15.4403084 10.5040771"></polygon>
                        <path d="M20.5309542,7.44001928 L15.5395807,7.7538988 L15.1252675,4.55973012 L20.8311952,3.91568193 L20.5309542,7.44001928 Z M13.6135566,3.41963373 L14.3283518,9.04638072 L21.7086892,8.46315181 L22.8467614,2.56980241 L13.6135566,3.41963373 Z" id="Fill-4"></path>
                        <polygon id="Fill-5" points="16.7737012 11.1571759 16.2425205 15.1932723 17.8470506 14.9972723 18.9066651 11.0944289"></polygon>
                        <polygon id="Fill-6" points="17.9968771 13.2355904 22.8399133 15.1932771 22.4465639 13.615012 18.2301783 12.426241"></polygon>
                        <path d="M36.5076578,13.8840627 L35.9171518,6.72290602 L33.624959,7.45283373 L33.5279952,8.0384241 L32.6851518,7.63630361 L32.4291036,5.37784578 L33.9412482,5.20073735 L33.8497783,6.08724337 L37.3800434,5.65080964 L37.4356096,13.6393398 L36.5076578,13.8840627 Z M34.3296819,12.3440145 L34.5019711,10.7325446 L33.8643807,10.8302313 L33.9764771,8.70632771 L35.2550313,8.44444819 L34.7493446,10.0624241 L35.4620675,9.96661687 L34.3296819,12.3440145 Z M32.2035133,13.4718699 L30.0868867,11.8891229 L29.8901157,13.4136048 L28.8709831,13.5400145 L29.1653446,8.50652048 L30.4563807,8.35567711 L30.1992723,10.9518217 L32.614453,12.0123036 L32.2035133,13.4718699 Z M27.3618747,9.55259277 L27.7602843,5.99630361 L31.9860675,5.42362892 L32.1185494,10.4263759 L31.1625494,10.3565928 L30.9788867,6.6384241 L28.5056819,7.2063759 L28.5075133,9.77668916 L27.3618747,9.55259277 Z M30.0650554,3.21066506 C30.0777783,2.04314699 30.9661157,1.01524337 32.120959,0.812255422 C32.2732,0.786761446 32.4127663,0.77413494 32.5650554,0.77413494 C33.7706458,0.77413494 34.7731518,1.59900241 35.0269831,2.79186988 C35.0523807,2.91880964 35.0650072,3.02030361 35.0650072,3.12184578 L35.0650072,3.43760482 L30.0650554,3.43760482 L30.0650554,3.21066506 Z M39.9888627,14.098906 L38.3899229,4.16097831 C38.3391277,3.75485783 37.9838024,3.43760482 37.5777301,3.43760482 L35.8391759,3.43760482 L35.8391759,3.12184578 C35.826453,2.96950843 35.8137783,2.81721928 35.775706,2.63962892 C35.458453,1.07866506 34.1386458,1.44578313e-05 32.5650554,1.44578313e-05 C32.374694,1.44578313e-05 32.1843325,0.0126891566 31.9812964,0.0254120482 C30.458453,0.291918072 29.2909831,1.6497494 29.2782602,3.18526747 L29.2782602,3.43760482 L27.5523807,3.43760482 C27.1463084,3.43760482 26.7909831,3.75485783 26.740188,4.16097831 L25.1539229,14.0862313 L25.1539229,14.098906 C25.1158506,14.4162072 25.1919952,14.7080627 25.3823566,14.9237735 C25.534694,15.1014602 25.7376819,15.1902795 25.953441,15.1902795 L39.1767181,15.1902795 C39.3924289,15.1902795 39.5954651,15.0887855 39.7604289,14.9237735 C39.9381157,14.7207373 40.0269349,14.4162072 39.9888627,14.098906 L39.9888627,14.098906 Z" id="Fill-7"></path>
                    </g>
                </g>
            </g>
        </g>
    </g>
</svg>