<svg width="34px" height="32px" viewBox="0 0 34 32" version="1.1" xmlns="http://www.w3.org/2000/svg" xmlns:xlink="http://www.w3.org/1999/xlink">
    <defs>
        <filter x="-0.6%" y="-0.5%" width="101.1%" height="101.8%" filterUnits="objectBoundingBox" id="filter-1">
            <feOffset dx="0" dy="1" in="SourceAlpha" result="shadowOffsetOuter1"></feOffset>
            <feGaussianBlur stdDeviation="0.5" in="shadowOffsetOuter1" result="shadowBlurOuter1"></feGaussianBlur>
            <feColorMatrix values="0 0 0 0 0.905882353   0 0 0 0 0.905882353   0 0 0 0 0.905882353  0 0 0 1 0" type="matrix" in="shadowBlurOuter1" result="shadowMatrixOuter1"></feColorMatrix>
            <feMerge>
                <feMergeNode in="shadowMatrixOuter1"></feMergeNode>
                <feMergeNode in="SourceGraphic"></feMergeNode>
            </feMerge>
        </filter>
    </defs>
    <g id="Page-1" stroke="none" stroke-width="1" fill="none" fill-rule="evenodd">
        <g id="图片状态" transform="translate(-171.000000, -579.000000)" fill-rule="nonzero" fill="#B0B9C0">
            <g id="寿屋" filter="url(#filter-1)" transform="translate(12.000000, 534.000000)">
                <g id="加载失败" transform="translate(156.000000, 40.000000)">
                    <g id="Group-3">
                        <g id="no-pic-01" transform="translate(4.000000, 5.000000)">
                            <path d="M22.5882353,6.54545455 L8.94117647,6.54545455 C8.42352941,6.54545455 8,6.95454545 8,7.45454545 C8,7.95454545 8.42352941,8.36363636 8.94117647,8.36363636 L22.5882353,8.36363636 C23.5764706,8.36363636 24.9411765,9.68181818 24.9411765,10.6363636 L24.9411765,15.6363636 C24.9411765,16.1363636 25.3647059,16.5454545 25.8823529,16.5454545 C26.4,16.5454545 26.8235294,16.1363636 26.8235294,15.6363636 L26.8235294,10.6363636 C26.8235294,8.68181818 24.6117647,6.54545455 22.5882353,6.54545455 Z" id="Shape"></path>
                            <path d="M16,25.1818182 L3.76470588,25.1818182 C2.77647059,25.1818182 1.88235294,24.3181818 1.88235294,23.3636364 L1.88235294,21.5 L7.24705882,16.7727273 C7.62352941,16.4545455 7.67058824,15.8636364 7.29411765,15.5 C6.96470588,15.1363636 6.35294118,15.0909091 5.97647059,15.4545455 L1.88235294,19.0454545 L1.88235294,10.2727273 C1.88235294,9.77272727 1.45882353,9.36363636 0.941176471,9.36363636 C0.423529412,9.36363636 0,9.77272727 0,10.2727273 L0,23.3636364 C0,25.3181818 1.74117647,27 3.76470588,27 L16,27 C16.5176471,27 16.9411765,26.5909091 16.9411765,26.0909091 C16.9411765,25.5909091 16.5176471,25.1818182 16,25.1818182 Z" id="Shape"></path>
                            <path d="M26.8235294,19.1363636 C26.8235294,19.0909091 26.8235294,19.0909091 26.8235294,19.0454545 C26.8235294,19 26.8235294,19 26.7764706,18.9545455 C26.7764706,18.9090909 26.7764706,18.9090909 26.7294118,18.8636364 C26.7294118,18.8181818 26.6823529,18.8181818 26.6823529,18.7727273 C26.6823529,18.7272727 26.6352941,18.7272727 26.6352941,18.6818182 C26.6352941,18.6818182 26.5882353,18.6363636 26.5882353,18.6363636 C26.5882353,18.5909091 26.5411765,18.5909091 26.4941176,18.5454545 C26.4941176,18.5454545 26.4941176,18.5454545 26.4470588,18.5 L23.4823529,16.0909091 C23.1529412,15.9090909 22.5882353,15.9090909 22.2588235,16.2272727 L18.6352941,19.5454545 C18.2588235,19.9090909 18.2588235,20.4545455 18.5882353,20.8181818 C18.7764706,21 19.0117647,21.0909091 19.2941176,21.0909091 C19.5294118,21.0909091 19.7647059,21 19.9529412,20.8636364 L22.9647059,18.1363636 L24.9411765,19.7272727 L24.9411765,23.4090909 C24.9411765,24.3636364 24.0470588,25.2272727 23.0588235,25.2272727 C22.5411765,25.2272727 22.1176471,25.6363636 22.1176471,26.1363636 C22.1176471,26.6363636 22.5411765,27.0454545 23.0588235,27.0454545 C25.0823529,27.0454545 26.8235294,25.3636364 26.8235294,23.4090909 L26.8235294,19.3181818 C26.8235294,19.3181818 26.8235294,19.2727273 26.8235294,19.2727273 C26.8235294,19.2272727 26.8235294,19.1818182 26.8235294,19.1363636 Z" id="Shape"></path>
                            <path d="M20.1411765,15.1363636 C21.4117647,15.1363636 22.4470588,14.1363636 22.4470588,12.9090909 C22.4470588,11.6818182 21.4117647,10.6818182 20.1411765,10.6818182 C18.8705882,10.6818182 17.8352941,11.6818182 17.8352941,12.9090909 C17.8352941,14.1363636 18.8705882,15.1363636 20.1411765,15.1363636 Z M20.1411765,12.5 C20.3764706,12.5 20.5647059,12.6818182 20.5647059,12.9090909 C20.5647059,13.1363636 20.3764706,13.3181818 20.1411765,13.3181818 C19.9058824,13.3181818 19.7176471,13.1363636 19.7176471,12.9090909 C19.7176471,12.6818182 19.9058824,12.5 20.1411765,12.5 Z" id="Shape"></path>
                            <path d="M3.10588235,4.18181818 C2.77647059,3.77272727 2.21176471,3.72727273 1.78823529,4.04545455 C1.36470588,4.36363636 1.31764706,4.90909091 1.64705882,5.31818182 L21.4117647,29.4090909 C21.6,29.6363636 21.8823529,29.7727273 22.1647059,29.7727273 C22.3529412,29.7727273 22.5882353,29.7272727 22.7294118,29.5909091 C23.1529412,29.2727273 23.2,28.7272727 22.8705882,28.3181818 L3.10588235,4.18181818 Z" id="Shape"></path>
                            <path d="M31.2470588,3.95454545 C30.6352941,3.18181818 29.7882353,2.72727273 28.8,2.59090909 L11.1058824,0.318181818 C10.1176471,0.181818182 9.17647059,0.454545455 8.37647059,1 C7.57647059,1.59090909 7.10588235,2.40909091 6.96470588,3.36363636 C6.91764706,3.86363636 7.24705882,4.31818182 7.76470588,4.36363636 C8.28235294,4.40909091 8.75294118,4.09090909 8.8,3.59090909 C8.84705882,3.13636364 9.12941176,2.72727273 9.50588235,2.45454545 C9.88235294,2.18181818 10.3529412,2.04545455 10.8235294,2.09090909 L28.5176471,4.40909091 C29.5058824,4.54545455 30.2117647,5.40909091 30.0705882,6.36363636 L29.1764706,12.9090909 C29.1294118,13.4090909 29.4588235,13.8636364 29.9764706,13.9090909 C30.0235294,13.9090909 30.0705882,13.9090909 30.1176471,13.9090909 C30.5882353,13.9090909 30.9647059,13.5909091 31.0588235,13.1363636 L31.9529412,6.54545455 C32.0941176,5.68181818 31.8588235,4.72727273 31.2470588,3.95454545 Z" id="Shape"></path>
                        </g>
                    </g>
                </g>
            </g>
        </g>
    </g>
</svg>